<svg xmlns="http://www.w3.org/2000/svg" width="720" height="720" viewBox="0 0 720 720" role="img" aria-labelledby="title desc">
  <title id="title">TNG payment QR placeholder</title>
  <desc id="desc">Placeholder graphic for a Touch n Go payment QR code.</desc>
  <rect width="720" height="720" fill="#fffaff"/>
  <rect x="36" y="36" width="648" height="648" rx="18" fill="#171027"/>
  <rect x="76" y="76" width="568" height="568" rx="12" fill="#fffaff"/>
  <g fill="#171027">
    <rect x="112" y="112" width="132" height="132"/>
    <rect x="148" y="148" width="60" height="60" fill="#fffaff"/>
    <rect x="476" y="112" width="132" height="132"/>
    <rect x="512" y="148" width="60" height="60" fill="#fffaff"/>
    <rect x="112" y="476" width="132" height="132"/>
    <rect x="148" y="512" width="60" height="60" fill="#fffaff"/>
    <rect x="292" y="112" width="48" height="48"/>
    <rect x="376" y="112" width="36" height="84"/>
    <rect x="292" y="208" width="120" height="36"/>
    <rect x="280" y="292" width="48" height="48"/>
    <rect x="352" y="280" width="36" height="84"/>
    <rect x="424" y="292" width="84" height="48"/>
    <rect x="544" y="292" width="48" height="48"/>
    <rect x="292" y="388" width="120" height="36"/>
    <rect x="460" y="376" width="36" height="120"/>
    <rect x="544" y="388" width="48" height="84"/>
    <rect x="292" y="496" width="48" height="84"/>
    <rect x="376" y="508" width="48" height="48"/>
    <rect x="496" y="520" width="96" height="36"/>
    <rect x="424" y="580" width="48" height="36"/>
    <rect x="544" y="592" width="48" height="24"/>
  </g>
  <rect x="176" y="310" width="368" height="100" rx="12" fill="#171027"/>
  <text x="360" y="350" text-anchor="middle" font-family="Arial, Helvetica, sans-serif" font-size="30" font-weight="700" fill="#fffaff">TNG QR</text>
  <text x="360" y="384" text-anchor="middle" font-family="Arial, Helvetica, sans-serif" font-size="19" fill="#d7cce4">replace with real payment QR</text>
</svg>
